<?xml version="1.0" standalone="no"?>
<!DOCTYPE svg PUBLIC "-//W3C//DTD SVG 20010904//EN"
 "http://www.w3.org/TR/2001/REC-SVG-20010904/DTD/svg10.dtd">
<svg version="1.0" xmlns="http://www.w3.org/2000/svg"
 width="2048.000000pt" height="2048.000000pt" viewBox="0 0 2048.000000 2048.000000"
 preserveAspectRatio="xMidYMid meet">

<g transform="translate(0.000000,2048.000000) scale(0.100000,-0.100000)"
fill="#000000" stroke="none">
<path d="M9755 20470 c-1727 -89 -3352 -584 -4805 -1463 -979 -593 -1850
-1344 -2594 -2236 -398 -479 -756 -1002 -1081 -1581 -101 -181 -316 -614 -405
-815 -245 -557 -468 -1223 -600 -1790 -391 -1688 -356 -3429 102 -5085 333
-1203 907 -2374 1656 -3375 633 -845 1402 -1600 2252 -2210 1792 -1284 3937
-1953 6135 -1911 1384 26 2646 299 3925 851 420 181 930 452 1360 723 665 420
1199 849 1785 1436 460 460 789 852 1149 1364 1545 2200 2153 4929 1696 7608
-212 1244 -654 2431 -1312 3527 -118 197 -338 537 -348 537 -3 0 -238 -233
-522 -517 l-518 -518 66 -105 c1076 -1711 1524 -3742 1273 -5770 -379 -3057
-2357 -5707 -5194 -6957 -2176 -960 -4696 -987 -6895 -75 -2912 1208 -4961
3881 -5365 6997 -191 1474 -2 3001 542 4369 881 2217 2616 3981 4816 4895
1748 727 3717 866 5562 391 854 -220 1674 -571 2439 -1045 l151 -94 518 517
c284 284 517 520 517 523 0 9 -358 243 -535 351 -1270 771 -2733 1260 -4220
1413 -435 44 -1152 65 -1550 45z"/>
<path d="M15390 19937 l0 -143 98 -54 c379 -208 929 -567 1282 -838 169 -130
360 -284 360 -290 0 -4 -326 -333 -725 -732 l-726 -726 93 -74 c459 -370 912
-819 1286 -1273 l106 -128 726 726 c399 399 728 725 732 725 9 0 245 -298 365
-460 246 -334 477 -686 695 -1062 l120 -208 139 0 139 0 0 2340 0 2340 -2345
0 -2345 0 0 -143z"/>
<path d="M7220 11280 c-553 -61 -914 -321 -1011 -728 -18 -74 -20 -109 -17
-232 4 -130 8 -155 37 -240 18 -52 50 -126 72 -163 47 -79 148 -189 231 -254
158 -121 394 -208 663 -243 129 -17 437 -14 570 4 503 72 829 313 937 691 19
67 23 104 23 235 0 132 -3 167 -23 233 -104 359 -414 595 -892 677 -144 24
-452 35 -590 20z m403 -305 c190 -94 301 -385 268 -704 -28 -269 -128 -461
-278 -536 -52 -26 -68 -29 -153 -30 -88 0 -101 3 -162 33 -243 120 -355 551
-237 917 53 166 162 296 282 335 89 29 202 23 280 -15z"/>
<path d="M16398 11280 c-711 -75 -1123 -512 -1023 -1085 92 -525 636 -829
1405 -784 609 35 1004 302 1106 746 26 112 24 301 -5 408 -44 162 -114 279
-243 400 -164 155 -393 255 -683 300 -121 19 -437 27 -557 15z m389 -304 c120
-54 216 -189 260 -363 13 -52 17 -109 17 -243 0 -156 -3 -185 -27 -272 -49
-183 -138 -312 -254 -366 -50 -23 -71 -27 -153 -27 -84 0 -102 3 -153 28 -118
58 -209 190 -259 372 -31 117 -31 384 0 499 57 207 167 344 315 392 67 22 180
13 254 -20z"/>
<path d="M2500 11120 l0 -140 203 0 204 0 419 -760 419 -760 483 2 484 3 408
755 409 755 205 3 206 2 0 140 0 140 -617 -2 -618 -3 -3 -137 -3 -138 182 0
c141 0 180 -3 176 -12 -20 -47 -585 -1080 -592 -1081 -4 -1 -142 243 -306 543
l-299 545 215 3 215 2 0 140 0 140 -895 0 -895 0 0 -140z"/>
<path d="M9240 11120 l0 -140 210 0 210 0 0 -620 0 -620 -210 0 -210 0 0 -140
0 -140 1240 0 1240 0 0 415 0 415 -135 0 -135 0 0 -37 c0 -56 -26 -157 -57
-221 -41 -85 -144 -184 -236 -228 -108 -51 -194 -63 -449 -64 l-218 0 0 620 0
620 205 0 206 0 -3 138 -3 137 -827 3 -828 2 0 -140z"/>
<path d="M11677 11253 c-4 -3 -7 -66 -7 -139 l0 -134 207 -2 207 -3 417 -755
416 -755 484 -2 484 -3 415 760 414 760 203 0 203 0 0 140 0 140 -615 0 -615
0 0 -140 0 -140 175 0 c96 0 175 -3 175 -7 0 -10 -594 -1093 -600 -1093 -6 0
-584 1066 -588 1086 -3 12 32 14 213 14 l216 0 -3 138 -3 137 -896 3 c-492 1
-899 -1 -902 -5z"/>
</g>
</svg>
